<svg width="48" height="48" viewBox="0 0 48 48" fill="none" xmlns="http://www.w3.org/2000/svg">
<rect x="1" y="1" width="46" height="46" rx="23" stroke="#FF782D" stroke-width="2"/>
<path fill-rule="evenodd" clip-rule="evenodd" d="M23.167 17.3334C19.9453 17.3334 17.3337 19.9451 17.3337 23.1667C17.3337 26.3884 19.9453 29.0001 23.167 29.0001C26.3887 29.0001 29.0003 26.3884 29.0003 23.1667C29.0003 19.9451 26.3887 17.3334 23.167 17.3334ZM15.667 23.1667C15.667 19.0246 19.0249 15.6667 23.167 15.6667C27.3091 15.6667 30.667 19.0246 30.667 23.1667C30.667 27.3089 27.3091 30.6667 23.167 30.6667C19.0249 30.6667 15.667 27.3089 15.667 23.1667Z" fill="#FF782D"/>
<path fill-rule="evenodd" clip-rule="evenodd" d="M27.2861 27.2858C27.6115 26.9604 28.1391 26.9604 28.4646 27.2858L32.0896 30.9108C32.415 31.2363 32.415 31.7639 32.0896 32.0893C31.7641 32.4148 31.2365 32.4148 30.9111 32.0893L27.2861 28.4643C26.9606 28.1389 26.9606 27.6113 27.2861 27.2858Z" fill="#FF782D"/>
</svg>
