<svg width="120" height="121" viewBox="0 0 120 121" fill="none" xmlns="http://www.w3.org/2000/svg">
<rect y="0.799805" width="120" height="120" rx="60" fill="white"/>
<path d="M76.6839 68.9125C76.6636 68.9042 76.6432 68.8967 76.6227 68.8897C74.6385 68.1527 73.0576 67.9132 72.8534 67.866C72.7156 67.4202 72.484 66.9979 72.1577 66.6317C70.5812 64.8628 68.6902 63.8889 67.667 63.454V62.1639C69.9018 60.5577 71.4685 58.4506 72.1248 55.2499H73.3771C75.3253 55.2499 76.9104 53.6649 76.9104 51.7167V49.5872C76.9104 48.0055 75.8656 46.6631 74.4274 46.2141V43.1265C74.8546 42.8378 75.1491 42.3844 75.2356 41.8754L76.0079 37.3339L80.7074 35.5499V37.0906C79.8457 37.2159 79.1559 37.9045 79.0527 38.7927L78.4963 43.5906C78.3628 44.7437 79.2636 45.7641 80.4324 45.7641H83.0916C84.2526 45.7641 85.1624 44.7514 85.0277 43.5903L84.4713 38.7927C84.3682 37.9047 83.6784 37.2159 82.8165 37.0906V33.781C82.8165 33.7797 82.8167 33.7786 82.8167 33.7773C82.8165 33.1871 82.4599 32.6705 81.9082 32.4612L76.1376 30.2707C75.5926 30.0637 74.9839 30.3379 74.7771 30.8824C74.5704 31.4271 74.8444 32.0361 75.3889 32.2428L79.4327 33.7778L75.1688 35.3964C75.0138 35.2976 74.8427 35.2192 74.6568 35.1676C64.8805 32.4564 55.3761 32.4567 45.6007 35.1676C45.4148 35.219 45.2435 35.2976 45.0885 35.3964L40.8246 33.7778L57.7853 27.3395C59.2962 26.7658 60.961 26.7656 62.4725 27.3395L70.7733 30.4905C71.3182 30.6977 71.9268 30.4233 72.1337 29.8788C72.3404 29.3342 72.0665 28.7251 71.522 28.5184L63.2211 25.3675C61.2268 24.6106 59.0307 24.6106 57.0366 25.3675L38.3495 32.4611C37.7976 32.6705 37.4409 33.1871 37.4409 33.7773C37.4408 34.3675 37.7973 34.8845 38.3494 35.0942L44.2498 37.3339L45.0223 41.8752C45.1088 42.3843 45.4033 42.8378 45.8305 43.1264V46.2132C44.3934 46.6615 43.3475 48.0045 43.3475 49.5871V51.7166C43.3475 53.6647 44.9324 55.2498 46.8808 55.2498H48.1334C48.7358 58.27 50.1773 60.3504 52.333 61.9736V63.454C51.3096 63.8888 49.4187 64.8629 47.8424 66.6317C47.5161 66.9977 47.2845 67.42 47.1467 67.8658C47.0962 67.8775 45.0119 68.2192 43.3158 68.9125C35.0877 71.9977 29.4197 79.933 29.4197 88.959V91.4188C29.4197 94.3859 31.8336 96.7998 34.8007 96.7998H85.1993C88.1663 96.7998 90.5803 94.3859 90.5803 91.4188V88.959C90.5803 79.9327 84.9121 71.9974 76.6839 68.9125ZM82.3926 39.1778L82.9117 43.6548H80.6124L81.1316 39.1778H82.3926ZM68.1804 66.08C68.9377 66.5314 69.8124 67.1709 70.5827 68.0351C70.954 68.4519 70.9929 69.0623 70.6934 69.5125C70.6931 69.5131 70.6928 69.5137 70.6924 69.5142C70.6897 69.5182 70.6872 69.5221 70.6847 69.5262L66.531 75.7283C66.5309 75.7286 66.5306 75.7289 66.5305 75.7292C66.1729 76.2631 65.4658 76.4144 64.9213 76.074C63.9167 75.4462 62.3778 74.4848 61.7636 74.101L66.5445 69.8711C67.6413 68.9005 68.2208 67.4971 68.1804 66.08ZM64.8516 78.2911C64.5059 78.8326 64.0037 79.6195 63.2744 80.7625L62.5966 78.8041L63.4476 77.6402C63.6782 77.7668 64.0992 78.1258 64.8516 78.2911ZM65.8895 65.2326C66.3042 66.3021 66.0058 67.5313 65.1467 68.2912L60 72.8447L54.8534 68.2912C53.9943 67.5313 53.6958 66.3022 54.1106 65.2328C54.2677 64.7452 54.4423 64.5322 54.4423 64.1799V63.2852C57.8785 64.9988 61.9528 65.1076 65.5575 63.4082V64.1799C65.5575 64.45 65.6424 64.5886 65.8895 65.2326ZM60 75.4863L61.6537 76.5196L60.8838 77.5726H59.1162L58.3462 76.5196L60 75.4863ZM59.3319 79.682H60.6682L61.8273 83.0308C61.5404 83.4805 61.2324 83.9632 60.9004 84.4836C60.4818 85.1453 59.5221 85.1513 59.0977 84.4802C58.7664 83.9611 58.4593 83.4796 58.173 83.0308L59.3319 79.682ZM72.3179 46.0539H71.117C70.4985 46.0539 69.9326 45.5994 69.9326 44.9411V42.7225C70.726 42.8787 71.521 43.0535 72.3179 43.2474V46.0539ZM74.8009 49.5872V51.7167C74.8009 52.5018 74.1621 53.1406 73.3769 53.1406H72.3875C72.4248 52.4151 72.3945 53.364 72.4058 48.1633H73.3726C73.3733 48.1633 73.374 48.1631 73.3748 48.1631C73.3757 48.1631 73.3762 48.1633 73.3771 48.1633C74.1621 48.1633 74.8009 48.8021 74.8009 49.5872ZM73.9001 37.1469L73.1954 41.2902C64.4401 39.0989 55.8878 39.081 47.0622 41.2901L46.3575 37.1469C55.6219 34.6117 64.6353 34.6117 73.9001 37.1469ZM46.8808 53.1407C46.0957 53.1407 45.4568 52.502 45.4568 51.7169V49.5874C45.4568 48.8023 46.0957 48.1634 46.8808 48.1634H46.8852H47.8558C47.8719 53.2366 47.8386 52.3384 47.8787 53.1407H46.8808ZM47.9398 46.0539V43.2473C48.7368 43.0534 49.5317 42.8784 50.3251 42.7224C50.3237 45.0892 50.3282 44.9507 50.3212 45.0425C50.2766 45.6097 49.758 46.0539 49.1409 46.0539C49.119 46.0539 47.86 46.0539 47.9398 46.0539ZM49.9684 52.6501L49.9651 48.0571C51.2932 47.7192 52.3153 46.5901 52.424 45.2085C52.4425 44.974 52.431 45.0639 52.4345 42.3511C57.5815 41.5526 62.6762 41.5526 67.8234 42.3512C67.8269 45.0332 67.8154 44.9749 67.8339 45.208C67.9428 46.5912 68.9667 47.7212 70.2966 48.0579C70.297 54.2418 70.2846 52.3227 70.2973 52.6984C69.9603 65.755 50.2606 65.7919 49.9684 52.6501ZM49.4173 68.0351C50.1875 67.1707 51.0623 66.5313 51.8196 66.0799C51.7793 67.4968 52.3587 68.9005 53.4557 69.8711L58.2367 74.101C57.5912 74.5015 56.7343 75.0356 55.079 76.074C54.5346 76.4143 53.8278 76.2631 53.4701 75.7296L49.3156 69.5262C49.3129 69.5221 49.3102 69.5182 49.3076 69.5141C49.3073 69.5137 49.307 69.5131 49.3067 69.5127C49.0132 69.0717 49.039 68.4597 49.4173 68.0351ZM57.4033 78.8042L56.7255 80.7627C55.9961 79.6195 55.4939 78.8326 55.1483 78.2911C55.8992 78.1261 56.3138 77.7712 56.5524 77.6405L57.4033 78.8042ZM88.4709 91.4188C88.4709 93.2229 87.0034 94.6905 85.1993 94.6905H79.7248V87.4505C79.7248 86.8679 79.2527 86.3958 78.6701 86.3958C78.0875 86.3958 77.6154 86.8679 77.6154 87.4505V94.6905H42.3846V87.4505C42.3846 86.8679 41.9125 86.3958 41.3299 86.3958C40.7473 86.3958 40.2752 86.8679 40.2752 87.4505V94.6905H34.8007C32.9966 94.6905 31.5291 93.2229 31.5291 91.4188V88.959C31.5291 81.1052 36.2896 74.1676 43.2909 71.1937L46.4575 76.215C46.6581 76.5331 47.0005 76.7072 47.3506 76.7072C47.5429 76.7072 47.7376 76.6546 47.9123 76.5445C48.4049 76.2339 48.5526 75.5825 48.2418 75.0897L45.3237 70.4625C46.322 70.1655 47.0067 70.0465 47.2061 70.0028C47.5863 71.0407 47.0825 69.5698 57.3173 85.6114C58.5653 87.5848 61.4387 87.5785 62.6809 85.6148C70.6985 73.0472 72.4308 70.6997 72.4449 70.6884C72.5879 70.474 72.7173 70.2123 72.7941 70.0026C73.0106 70.05 73.6467 70.1559 74.6765 70.4622L64.4266 86.7152C62.3889 89.9462 57.6105 89.9454 55.5735 86.7152L50.8729 79.2614C50.5622 78.7686 49.9108 78.6212 49.4181 78.9319C48.9255 79.2425 48.7778 79.8939 49.0886 80.3867L53.7893 87.8405C56.6547 92.3838 63.3453 92.3839 66.2106 87.8405L76.7089 71.1933C83.7102 74.1672 88.4708 81.1048 88.4708 88.9587V91.4188H88.4709Z" fill="black"/>
</svg>
